<?xml version="1.0" encoding="UTF-8"?>
<svg xmlns="http://www.w3.org/2000/svg" xmlns:xlink="http://www.w3.org/1999/xlink" width="px" height="px" viewBox="0 0 432 384" version="1.1">
<g id="surface1">
<path style=" stroke:none;fill-rule:nonzero;fill:rgb(49.019608%,68.235294%,63.921569%);fill-opacity:1;" d="M 225.824219 26.101562 C 234.449219 30 240 38.550781 240 48 L 240 336 C 240 345.449219 234.449219 354 225.824219 357.898438 C 217.199219 361.800781 207.074219 360.226562 200.023438 353.925781 L 98.851562 264 L 48 264 C 21.523438 264 0 242.476562 0 216 L 0 168 C 0 141.523438 21.523438 120 48 120 L 98.851562 120 L 200.023438 30.074219 C 207.074219 23.773438 217.199219 22.273438 225.824219 26.101562 Z M 318.75 125.25 L 360 166.5 L 401.25 125.25 C 408.300781 118.199219 419.699219 118.199219 426.675781 125.25 C 433.648438 132.300781 433.726562 143.699219 426.675781 150.675781 L 385.425781 191.925781 L 426.675781 233.175781 C 433.726562 240.226562 433.726562 251.625 426.675781 258.601562 C 419.625 265.574219 408.226562 265.648438 401.25 258.601562 L 360 217.351562 L 318.75 258.601562 C 311.699219 265.648438 300.300781 265.648438 293.324219 258.601562 C 286.351562 251.550781 286.273438 240.148438 293.324219 233.175781 L 334.574219 191.925781 L 293.324219 150.675781 C 286.273438 143.625 286.273438 132.226562 293.324219 125.25 C 300.375 118.273438 311.773438 118.199219 318.75 125.25 Z M 318.75 125.25 "/>
</g>
</svg>
