<?xml version="1.0" encoding="UTF-8"?>
<svg xmlns="http://www.w3.org/2000/svg" xmlns:xlink="http://www.w3.org/1999/xlink" width="px" height="px" viewBox="0 0 336 384" version="1.1">
<g id="surface1">
<path style=" stroke:none;fill-rule:nonzero;fill:rgb(49.019608%,68.235294%,63.921569%);fill-opacity:1;" d="M 225.824219 26.101562 C 234.449219 30 240 38.550781 240 48 L 240 336 C 240 345.449219 234.449219 354 225.824219 357.898438 C 217.199219 361.800781 207.074219 360.226562 200.023438 353.925781 L 98.851562 264 L 48 264 C 21.523438 264 0 242.476562 0 216 L 0 168 C 0 141.523438 21.523438 120 48 120 L 98.851562 120 L 200.023438 30.074219 C 207.074219 23.773438 217.199219 22.273438 225.824219 26.101562 Z M 309.449219 136.125 C 325.574219 149.324219 336 169.425781 336 192 C 336 214.574219 325.574219 234.675781 309.449219 247.875 C 301.726562 254.175781 290.398438 252.976562 284.101562 245.25 C 277.800781 237.523438 279 226.199219 286.726562 219.898438 C 294.824219 213.300781 300 203.25 300 192 C 300 180.75 294.824219 170.699219 286.726562 164.023438 C 279 157.726562 277.875 146.398438 284.101562 138.675781 C 290.324219 130.949219 301.726562 129.824219 309.449219 136.050781 Z M 309.449219 136.125 "/>
</g>
</svg>
