<?xml version="1.0" encoding="UTF-8"?>
<svg xmlns="http://www.w3.org/2000/svg" xmlns:xlink="http://www.w3.org/1999/xlink" width="px" height="px" viewBox="0 0 480 384" version="1.1">
<g id="surface1">
<path style=" stroke:none;fill-rule:nonzero;fill:rgb(49.019608%,68.235294%,63.921569%);fill-opacity:1;" d="M 400.199219 24.375 C 448.875 63.898438 480 124.351562 480 192 C 480 259.648438 448.875 320.023438 400.199219 359.625 C 392.476562 365.925781 381.148438 364.726562 374.851562 357 C 368.550781 349.273438 369.75 337.949219 377.476562 331.648438 C 418.125 298.648438 444 248.398438 444 192 C 444 135.601562 418.125 85.351562 377.476562 52.273438 C 369.75 45.976562 368.625 34.648438 374.851562 26.925781 C 381.074219 19.199219 392.476562 18.074219 400.199219 24.300781 Z M 354.824219 80.25 C 387.226562 106.648438 408 146.925781 408 192 C 408 237.074219 387.226562 277.351562 354.824219 303.75 C 347.101562 310.050781 335.773438 308.851562 329.476562 301.125 C 323.175781 293.398438 324.375 282.074219 332.101562 275.773438 C 356.476562 255.976562 372 225.824219 372 192 C 372 158.175781 356.476562 128.023438 332.101562 108.148438 C 324.375 101.851562 323.25 90.523438 329.476562 82.800781 C 335.699219 75.074219 347.101562 73.949219 354.824219 80.175781 Z M 309.449219 136.125 C 325.574219 149.324219 336 169.425781 336 192 C 336 214.574219 325.574219 234.675781 309.449219 247.875 C 301.726562 254.175781 290.398438 252.976562 284.101562 245.25 C 277.800781 237.523438 279 226.199219 286.726562 219.898438 C 294.824219 213.300781 300 203.25 300 192 C 300 180.75 294.824219 170.699219 286.726562 164.023438 C 279 157.726562 277.875 146.398438 284.101562 138.675781 C 290.324219 130.949219 301.726562 129.824219 309.449219 136.050781 Z M 225.824219 26.101562 C 234.449219 30 240 38.550781 240 48 L 240 336 C 240 345.449219 234.449219 354 225.824219 357.898438 C 217.199219 361.800781 207.074219 360.226562 200.023438 353.925781 L 98.851562 264 L 48 264 C 21.523438 264 0 242.476562 0 216 L 0 168 C 0 141.523438 21.523438 120 48 120 L 98.851562 120 L 200.023438 30.074219 C 207.074219 23.773438 217.199219 22.273438 225.824219 26.101562 Z M 225.824219 26.101562 "/>
</g>
</svg>
